<svg id="Layer_1" data-name="Layer 1" xmlns="http://www.w3.org/2000/svg" viewBox="0 0 495.04 215.27"><defs><style>.cls-1{fill:#181616;fill-rule:evenodd;}.cls-2{fill:#430098;}.cls-12,.cls-14,.cls-3{fill:none;}.cls-4{fill:#aa53a9;}.cls-5{fill:#fbc629;}.cls-6{fill:#8d4697;}.cls-7{fill:#efaa24;}.cls-8{fill:#e8524f;}.cls-9{fill:#d23f4a;}.cls-10{fill:#0092d0;}.cls-11{fill:#00ace4;}.cls-12{stroke:#65bc19;}.cls-12,.cls-14{stroke-miterlimit:10;stroke-width:5px;}.cls-13{fill:#65bc19;}.cls-14{stroke:#c94b84;}.cls-15{fill:#c94b84;}.cls-16{fill:#fdb018;}.cls-17{fill:#020201;}</style></defs><title>architecture</title><path d="M284.59,181.41a4,4,0,0,1,4.2-4.14,3.62,3.62,0,0,1,3.21,1.8l-1.2.61a2.37,2.37,0,0,0-2-1.16,2.89,2.89,0,0,0,0,5.78,2.35,2.35,0,0,0,2-1.16l1.2,0.61a3.63,3.63,0,0,1-3.21,1.8A4,4,0,0,1,284.59,181.41Z" transform="translate(-270.4 -123.44)"/><path d="M292.74,182.5a3,3,0,1,1,3,3A2.9,2.9,0,0,1,292.74,182.5Zm4.65,0a1.69,1.69,0,1,0-1.68,1.93A1.74,1.74,0,0,0,297.39,182.5Z" transform="translate(-270.4 -123.44)"/><path d="M303.88,185.41v-3.62a1,1,0,0,0-1.16-1.2,1.91,1.91,0,0,0-1.49.78v4H300v-5.79h1.26v0.79a2.74,2.74,0,0,1,2-.94,1.67,1.67,0,0,1,1.87,1.86v4.08h-1.26Z" transform="translate(-270.4 -123.44)"/><path d="M307,184.06v-3.35h-1v-1.1h1V178h1.26v1.58h1.18v1.1h-1.18v3a0.58,0.58,0,0,0,.55.68,0.81,0.81,0,0,0,.56-0.2l0.3,0.95a1.66,1.66,0,0,1-1.19.37A1.34,1.34,0,0,1,307,184.06Z" transform="translate(-270.4 -123.44)"/><path d="M310.24,182.5a2.93,2.93,0,0,1,2.94-3,2.87,2.87,0,0,1,2.85,3.15v0.3h-4.47a1.76,1.76,0,0,0,1.85,1.59,2.45,2.45,0,0,0,1.64-.64l0.58,0.83a3.38,3.38,0,0,1-2.35.84A2.91,2.91,0,0,1,310.24,182.5Zm2.94-2a1.6,1.6,0,0,0-1.63,1.54h3.26A1.55,1.55,0,0,0,313.18,180.5Z" transform="translate(-270.4 -123.44)"/><path d="M321.2,185.41v-3.62a1,1,0,0,0-1.16-1.2,1.91,1.91,0,0,0-1.49.78v4h-1.26v-5.79h1.26v0.79a2.74,2.74,0,0,1,2-.94,1.67,1.67,0,0,1,1.87,1.86v4.08H321.2Z" transform="translate(-270.4 -123.44)"/><path d="M324.34,184.06v-3.35h-1v-1.1h1V178h1.26v1.58h1.18v1.1H325.6v3a0.58,0.58,0,0,0,.55.68,0.81,0.81,0,0,0,.56-0.2l0.3,0.95a1.66,1.66,0,0,1-1.19.37A1.34,1.34,0,0,1,324.34,184.06Z" transform="translate(-270.4 -123.44)"/><path d="M330.68,181.41a4,4,0,0,1,4.2-4.14,3.62,3.62,0,0,1,3.21,1.8l-1.2.61a2.37,2.37,0,0,0-2-1.16,2.89,2.89,0,0,0,0,5.78,2.35,2.35,0,0,0,2-1.16l1.2,0.61a3.63,3.63,0,0,1-3.21,1.8A4,4,0,0,1,330.68,181.41Z" transform="translate(-270.4 -123.44)"/><path d="M343.1,185.41v-0.77a2.78,2.78,0,0,1-2.05.91,1.64,1.64,0,0,1-1.86-1.83v-4.1h1.26v3.65a1,1,0,0,0,1.16,1.17,1.93,1.93,0,0,0,1.49-.75v-4.07h1.26v5.79H343.1Z" transform="translate(-270.4 -123.44)"/><path d="M346,185.41v-5.79h1.26v0.85a2.47,2.47,0,0,1,1.88-1v1.25a1.89,1.89,0,0,0-.4,0,2,2,0,0,0-1.49.77v3.95H346Z" transform="translate(-270.4 -123.44)"/><path d="M353.69,185.41v-0.62a2.44,2.44,0,0,1-1.87.77,1.92,1.92,0,0,1-2-1.92,1.87,1.87,0,0,1,2-1.88,2.39,2.39,0,0,1,1.87.74v-0.86a1.16,1.16,0,0,0-1.35-1.08,2.37,2.37,0,0,0-1.72.73l-0.52-.87a3.44,3.44,0,0,1,2.43-.94c1.28,0,2.41.54,2.41,2.1v3.84h-1.26Zm0-1.32v-0.87a1.69,1.69,0,0,0-1.38-.6,1.05,1.05,0,1,0,0,2.08A1.7,1.7,0,0,0,353.69,184.09Z" transform="translate(-270.4 -123.44)"/><path d="M356.84,184.06v-3.35h-1v-1.1h1V178h1.26v1.58h1.18v1.1H358.1v3a0.58,0.58,0,0,0,.55.68,0.81,0.81,0,0,0,.56-0.2l0.3,0.95a1.66,1.66,0,0,1-1.19.37A1.34,1.34,0,0,1,356.84,184.06Z" transform="translate(-270.4 -123.44)"/><path d="M360.05,182.5a3,3,0,1,1,3,3A2.9,2.9,0,0,1,360.05,182.5Zm4.65,0a1.69,1.69,0,1,0-1.68,1.93A1.74,1.74,0,0,0,364.71,182.5Z" transform="translate(-270.4 -123.44)"/><path d="M367.29,185.41v-5.79h1.26v0.85a2.47,2.47,0,0,1,1.88-1v1.25a1.89,1.89,0,0,0-.4,0,2,2,0,0,0-1.49.77v3.95h-1.26Z" transform="translate(-270.4 -123.44)"/><path d="M682.4,184.28l0.78-1.08a3.45,3.45,0,0,0,2.53,1.1c1.15,0,1.61-.56,1.61-1.09,0-1.68-4.67-.64-4.67-3.59,0-1.32,1.16-2.34,2.91-2.34a4.16,4.16,0,0,1,3,1.12l-0.8,1a3.25,3.25,0,0,0-2.31-.91,1.14,1.14,0,0,0-1.36,1c0,1.49,4.65.56,4.65,3.55,0,1.33-.94,2.47-3.09,2.47A4.28,4.28,0,0,1,682.4,184.28Z" transform="translate(-270.4 -123.44)"/><path d="M689.85,178.13a0.79,0.79,0,0,1,.78-0.78,0.78,0.78,0,0,1,0,1.56A0.79,0.79,0,0,1,689.85,178.13Zm0.16,7.28v-5.79h1.26v5.79H690Z" transform="translate(-270.4 -123.44)"/><path d="M693.15,184.06v-3.35h-1v-1.1h1V178h1.26v1.58h1.17v1.1h-1.17v3a0.58,0.58,0,0,0,.55.68,0.81,0.81,0,0,0,.56-0.2l0.3,0.95a1.66,1.66,0,0,1-1.19.37A1.34,1.34,0,0,1,693.15,184.06Z" transform="translate(-270.4 -123.44)"/><path d="M696.36,182.5a2.93,2.93,0,0,1,2.94-3,2.87,2.87,0,0,1,2.85,3.15v0.3h-4.47a1.76,1.76,0,0,0,1.85,1.59,2.45,2.45,0,0,0,1.64-.64l0.58,0.83a3.38,3.38,0,0,1-2.35.84A2.91,2.91,0,0,1,696.36,182.5Zm2.94-2a1.6,1.6,0,0,0-1.63,1.54h3.26A1.55,1.55,0,0,0,699.3,180.5Z" transform="translate(-270.4 -123.44)"/><path d="M708.83,185.41l-3.14-8h1.59l2.42,6.48,2.42-6.48h1.59l-3.14,8h-1.75Z" transform="translate(-270.4 -123.44)"/><path d="M714.41,178.13a0.79,0.79,0,0,1,.78-0.78,0.78,0.78,0,0,1,0,1.56A0.79,0.79,0,0,1,714.41,178.13Zm0.16,7.28v-5.79h1.26v5.79h-1.26Z" transform="translate(-270.4 -123.44)"/><path d="M717,184.65l0.58-.91a3,3,0,0,0,2,.82,0.92,0.92,0,0,0,1.14-.78c0-1.14-3.5-.32-3.5-2.54,0-.95.82-1.76,2.28-1.76a3.31,3.31,0,0,1,2.25.82l-0.53.89a2.33,2.33,0,0,0-1.71-.7,0.9,0.9,0,0,0-1.08.71c0,1,3.5.26,3.5,2.57,0,1-.85,1.8-2.41,1.8A3.52,3.52,0,0,1,717,184.65Z" transform="translate(-270.4 -123.44)"/><path d="M723,178.13a0.79,0.79,0,0,1,.78-0.78,0.78,0.78,0,0,1,0,1.56A0.79,0.79,0,0,1,723,178.13Zm0.16,7.28v-5.79h1.26v5.79h-1.26Z" transform="translate(-270.4 -123.44)"/><path d="M726.27,184.06v-3.35h-1v-1.1h1V178h1.26v1.58h1.17v1.1h-1.17v3a0.58,0.58,0,0,0,.55.68,0.81,0.81,0,0,0,.56-0.2l0.3,0.95a1.66,1.66,0,0,1-1.19.37A1.34,1.34,0,0,1,726.27,184.06Z" transform="translate(-270.4 -123.44)"/><path d="M729.48,182.5a3,3,0,1,1,3,3A2.9,2.9,0,0,1,729.48,182.5Zm4.65,0a1.69,1.69,0,1,0-1.68,1.93A1.74,1.74,0,0,0,734.14,182.5Z" transform="translate(-270.4 -123.44)"/><path d="M736.72,185.41v-5.79H738v0.85a2.48,2.48,0,0,1,1.88-1v1.25a1.9,1.9,0,0,0-.4,0,2,2,0,0,0-1.49.77v3.95h-1.26Z" transform="translate(-270.4 -123.44)"/><path d="M740.38,184.65l0.58-.91a3,3,0,0,0,2,.82,0.92,0.92,0,0,0,1.14-.78c0-1.14-3.5-.32-3.5-2.54,0-.95.82-1.76,2.28-1.76a3.31,3.31,0,0,1,2.25.82l-0.53.89a2.33,2.33,0,0,0-1.71-.7,0.9,0.9,0,0,0-1.08.71c0,1,3.5.26,3.5,2.57,0,1-.85,1.8-2.41,1.8A3.52,3.52,0,0,1,740.38,184.65Z" transform="translate(-270.4 -123.44)"/><path class="cls-1" d="M515.12,133a17.62,17.62,0,0,0-5.57,34.34,0.89,0.89,0,0,0,1.2-.85c0-.42,0-1.53,0-3-4.9,1.06-5.94-2.36-5.94-2.36a4.67,4.67,0,0,0-2-2.58c-1.6-1.09.12-1.07,0.12-1.07a3.7,3.7,0,0,1,2.7,1.82,3.75,3.75,0,0,0,5.13,1.46,3.76,3.76,0,0,1,1.12-2.36c-3.91-.44-8-2-8-8.71A6.81,6.81,0,0,1,505.7,145a6.34,6.34,0,0,1,.17-4.66s1.48-.47,4.85,1.81a16.7,16.7,0,0,1,8.82,0c3.36-2.28,4.84-1.81,4.84-1.81a6.33,6.33,0,0,1,.18,4.66,6.8,6.8,0,0,1,1.81,4.73c0,6.77-4.12,8.26-8,8.69a4.21,4.21,0,0,1,1.2,3.26c0,2.36,0,4.26,0,4.83a0.88,0.88,0,0,0,1.21.85A17.62,17.62,0,0,0,515.12,133Z" transform="translate(-270.4 -123.44)"/><path d="M479.7,181.41a4,4,0,0,1,4.2-4.14,3.76,3.76,0,0,1,3.23,1.67l-1.15.65a2.55,2.55,0,0,0-2.08-1.07,2.9,2.9,0,0,0,0,5.79,2.94,2.94,0,0,0,1.9-.72v-1.25h-2.39v-1.24h3.79v3a4.34,4.34,0,0,1-3.3,1.45A4,4,0,0,1,479.7,181.41Z" transform="translate(-270.4 -123.44)"/><path d="M488.48,178.13a0.79,0.79,0,0,1,.78-0.78,0.78,0.78,0,0,1,0,1.56A0.79,0.79,0,0,1,488.48,178.13Zm0.16,7.28v-5.79h1.26v5.79h-1.26Z" transform="translate(-270.4 -123.44)"/><path d="M491.78,184.06v-3.35h-1v-1.1h1V178H493v1.58h1.17v1.1H493v3a0.58,0.58,0,0,0,.55.68,0.81,0.81,0,0,0,.56-0.2l0.3,0.95a1.66,1.66,0,0,1-1.19.37A1.34,1.34,0,0,1,491.78,184.06Z" transform="translate(-270.4 -123.44)"/><path d="M503,185.41l-1.78-3h-1.39v3h-1.4v-8H502a2.43,2.43,0,0,1,2.62,2.51,2.24,2.24,0,0,1-1.9,2.35l2,3.14H503Zm0.12-5.49a1.26,1.26,0,0,0-1.37-1.27h-1.92v2.54h1.92A1.26,1.26,0,0,0,503.16,179.91Z" transform="translate(-270.4 -123.44)"/><path d="M505.25,182.5a2.93,2.93,0,0,1,2.94-3,2.87,2.87,0,0,1,2.85,3.15v0.3h-4.47a1.75,1.75,0,0,0,1.85,1.59,2.45,2.45,0,0,0,1.64-.64l0.58,0.83a3.38,3.38,0,0,1-2.35.84A2.91,2.91,0,0,1,505.25,182.5Zm2.94-2a1.6,1.6,0,0,0-1.63,1.54h3.26A1.55,1.55,0,0,0,508.19,180.5Z" transform="translate(-270.4 -123.44)"/><path d="M513.56,184.6v3H512.3v-8h1.26v0.79a2.31,2.31,0,0,1,1.86-.94c1.5,0,2.57,1.13,2.57,3s-1.07,3-2.57,3A2.27,2.27,0,0,1,513.56,184.6Zm3.12-2.1a1.7,1.7,0,0,0-1.63-1.92,1.88,1.88,0,0,0-1.49.78v2.29a1.91,1.91,0,0,0,1.49.78A1.71,1.71,0,0,0,516.67,182.5Z" transform="translate(-270.4 -123.44)"/><path d="M518.87,182.5a3,3,0,1,1,3,3A2.9,2.9,0,0,1,518.87,182.5Zm4.65,0a1.69,1.69,0,1,0-1.68,1.93A1.74,1.74,0,0,0,523.53,182.5Z" transform="translate(-270.4 -123.44)"/><path d="M525.6,184.65l0.58-.91a3,3,0,0,0,2,.82,0.92,0.92,0,0,0,1.14-.78c0-1.14-3.5-.32-3.5-2.54,0-.95.82-1.76,2.28-1.76a3.31,3.31,0,0,1,2.25.82l-0.53.89a2.33,2.33,0,0,0-1.71-.7,0.9,0.9,0,0,0-1.08.71c0,1,3.5.26,3.5,2.57,0,1-.85,1.8-2.41,1.8A3.52,3.52,0,0,1,525.6,184.65Z" transform="translate(-270.4 -123.44)"/><path d="M531.62,178.13a0.79,0.79,0,0,1,.78-0.78,0.78,0.78,0,0,1,0,1.56A0.79,0.79,0,0,1,531.62,178.13Zm0.16,7.28v-5.79H533v5.79h-1.26Z" transform="translate(-270.4 -123.44)"/><path d="M534.92,184.06v-3.35h-1v-1.1h1V178h1.26v1.58h1.17v1.1h-1.17v3a0.58,0.58,0,0,0,.55.68,0.81,0.81,0,0,0,.56-0.2l0.3,0.95a1.66,1.66,0,0,1-1.19.37A1.34,1.34,0,0,1,534.92,184.06Z" transform="translate(-270.4 -123.44)"/><path d="M538.13,182.5a3,3,0,1,1,3,3A2.9,2.9,0,0,1,538.13,182.5Zm4.65,0a1.69,1.69,0,1,0-1.68,1.93A1.74,1.74,0,0,0,542.79,182.5Z" transform="translate(-270.4 -123.44)"/><path d="M545.37,185.41v-5.79h1.26v0.85a2.47,2.47,0,0,1,1.88-1v1.25a1.9,1.9,0,0,0-.4,0,2,2,0,0,0-1.49.77v3.95h-1.26Z" transform="translate(-270.4 -123.44)"/><path d="M549.47,186.55a1.32,1.32,0,0,0,.48.1,0.78,0.78,0,0,0,.83-0.5l0.29-.66-2.37-5.87H550l1.69,4.34,1.69-4.34h1.36L552,186.45a1.94,1.94,0,0,1-2,1.31,3.57,3.57,0,0,1-.71-0.08Z" transform="translate(-270.4 -123.44)"/><path d="M463.35,336.35v-8h3.93a2,2,0,0,1,2.28,2,1.8,1.8,0,0,1-1.39,1.83,2,2,0,0,1,1.55,2,2.1,2.1,0,0,1-2.33,2.16h-4Zm4.77-5.72a1,1,0,0,0-1.13-1h-2.24v2.08H467A1,1,0,0,0,468.13,330.63Zm0.16,3.37a1.1,1.1,0,0,0-1.22-1.1h-2.3v2.22h2.3A1.08,1.08,0,0,0,468.28,334Z" transform="translate(-270.4 -123.44)"/><path d="M475,336.35v-0.77a2.78,2.78,0,0,1-2.05.91,1.64,1.64,0,0,1-1.86-1.83v-4.1h1.26v3.65a1,1,0,0,0,1.16,1.17,1.92,1.92,0,0,0,1.49-.76v-4.07h1.26v5.79H475Z" transform="translate(-270.4 -123.44)"/><path d="M477.74,329.07a0.79,0.79,0,0,1,.78-0.78,0.78,0.78,0,0,1,0,1.56A0.79,0.79,0,0,1,477.74,329.07Zm0.16,7.28v-5.79h1.26v5.79H477.9Z" transform="translate(-270.4 -123.44)"/><path d="M480.79,336.35v-8H482v8h-1.26Z" transform="translate(-270.4 -123.44)"/><path d="M487.76,336.35v-0.79a2.35,2.35,0,0,1-1.86.94c-1.49,0-2.58-1.13-2.58-3s1.08-3,2.58-3a2.33,2.33,0,0,1,1.86.95v-3H489v8h-1.26Zm0-1.74v-2.3a1.9,1.9,0,0,0-1.5-.78,2,2,0,0,0,0,3.85A1.89,1.89,0,0,0,487.76,334.62Z" transform="translate(-270.4 -123.44)"/><path d="M489.84,336.59l2.84-8.48h0.94l-2.84,8.48h-0.94Z" transform="translate(-270.4 -123.44)"/><path d="M494.47,336.35v-8H498a2.51,2.51,0,1,1,0,5h-2.11v3h-1.4Zm4.69-5.49a1.26,1.26,0,0,0-1.37-1.27h-1.92v2.54h1.92A1.26,1.26,0,0,0,499.16,330.86Z" transform="translate(-270.4 -123.44)"/><path d="M501.73,336.35v-5.79H503v0.85a2.47,2.47,0,0,1,1.88-1v1.25a1.9,1.9,0,0,0-.4,0,2,2,0,0,0-1.49.77v3.95h-1.26Z" transform="translate(-270.4 -123.44)"/><path d="M505.53,333.45a2.93,2.93,0,0,1,2.94-3,2.87,2.87,0,0,1,2.85,3.15v0.3h-4.47a1.75,1.75,0,0,0,1.85,1.59,2.45,2.45,0,0,0,1.64-.64l0.58,0.83a3.38,3.38,0,0,1-2.35.84A2.91,2.91,0,0,1,505.53,333.45Zm2.94-2a1.6,1.6,0,0,0-1.63,1.54h3.26A1.55,1.55,0,0,0,508.47,331.45Z" transform="translate(-270.4 -123.44)"/><path d="M514.1,336.35l-2.36-5.79h1.34l1.69,4.34,1.69-4.34h1.36l-2.36,5.79H514.1Z" transform="translate(-270.4 -123.44)"/><path d="M518.46,329.07a0.79,0.79,0,0,1,.78-0.78,0.78,0.78,0,0,1,0,1.56A0.79,0.79,0,0,1,518.46,329.07Zm0.16,7.28v-5.79h1.26v5.79h-1.26Z" transform="translate(-270.4 -123.44)"/><path d="M521.14,333.45a2.93,2.93,0,0,1,2.94-3,2.87,2.87,0,0,1,2.85,3.15v0.3h-4.47a1.75,1.75,0,0,0,1.85,1.59,2.45,2.45,0,0,0,1.64-.64l0.58,0.83a3.38,3.38,0,0,1-2.35.84A2.91,2.91,0,0,1,521.14,333.45Zm2.94-2a1.6,1.6,0,0,0-1.63,1.54h3.26A1.55,1.55,0,0,0,524.08,331.45Z" transform="translate(-270.4 -123.44)"/><path d="M533.24,336.35l-1.34-4.25-1.34,4.25h-1.32l-1.8-5.79h1.31l1.22,4.21,1.38-4.21h1.1l1.38,4.21,1.22-4.21h1.31l-1.8,5.79h-1.32Z" transform="translate(-270.4 -123.44)"/><path d="M539.84,335.23l0.78-1.08a3.45,3.45,0,0,0,2.53,1.1c1.15,0,1.61-.56,1.61-1.09,0-1.68-4.67-.64-4.67-3.59,0-1.32,1.16-2.34,2.91-2.34a4.16,4.16,0,0,1,3,1.12l-0.8,1a3.26,3.26,0,0,0-2.32-.91,1.14,1.14,0,0,0-1.35,1c0,1.49,4.65.56,4.65,3.55,0,1.33-.94,2.47-3.09,2.47A4.28,4.28,0,0,1,539.84,335.23Z" transform="translate(-270.4 -123.44)"/><path d="M547.09,333.45a2.93,2.93,0,0,1,2.94-3,2.87,2.87,0,0,1,2.85,3.15v0.3h-4.47a1.75,1.75,0,0,0,1.85,1.59,2.45,2.45,0,0,0,1.64-.64l0.58,0.83a3.38,3.38,0,0,1-2.35.84A2.91,2.91,0,0,1,547.09,333.45Zm2.94-2a1.6,1.6,0,0,0-1.63,1.54h3.26A1.55,1.55,0,0,0,550,331.45Z" transform="translate(-270.4 -123.44)"/><path d="M554.13,336.35v-5.79h1.26v0.85a2.47,2.47,0,0,1,1.88-1v1.25a1.9,1.9,0,0,0-.4,0,2,2,0,0,0-1.49.77v3.95h-1.26Z" transform="translate(-270.4 -123.44)"/><path d="M559.82,336.35l-2.36-5.79h1.34l1.69,4.34,1.69-4.34h1.36l-2.36,5.79h-1.36Z" transform="translate(-270.4 -123.44)"/><path d="M564,333.45a2.93,2.93,0,0,1,2.94-3,2.87,2.87,0,0,1,2.85,3.15v0.3h-4.47a1.75,1.75,0,0,0,1.85,1.59,2.45,2.45,0,0,0,1.64-.64l0.58,0.83a3.38,3.38,0,0,1-2.35.84A2.91,2.91,0,0,1,564,333.45Zm2.94-2a1.6,1.6,0,0,0-1.63,1.54h3.26A1.55,1.55,0,0,0,566.91,331.45Z" transform="translate(-270.4 -123.44)"/><path d="M571,336.35v-5.79h1.26v0.85a2.47,2.47,0,0,1,1.88-1v1.25a1.9,1.9,0,0,0-.4,0,2,2,0,0,0-1.49.77v3.95H571Z" transform="translate(-270.4 -123.44)"/><path d="M658.34,335.23l0.78-1.08a3.45,3.45,0,0,0,2.53,1.1c1.15,0,1.61-.56,1.61-1.09,0-1.68-4.67-.64-4.67-3.59,0-1.32,1.16-2.34,2.91-2.34a4.16,4.16,0,0,1,3,1.12l-0.8,1a3.25,3.25,0,0,0-2.31-.91,1.14,1.14,0,0,0-1.36,1c0,1.49,4.65.56,4.65,3.55,0,1.33-.94,2.47-3.09,2.47A4.28,4.28,0,0,1,658.34,335.23Z" transform="translate(-270.4 -123.44)"/><path d="M666,335v-3.35h-1v-1.1h1V329h1.26v1.58h1.17v1.1h-1.17v3a0.58,0.58,0,0,0,.55.68,0.81,0.81,0,0,0,.56-0.2l0.3,0.95a1.66,1.66,0,0,1-1.19.37A1.34,1.34,0,0,1,666,335Z" transform="translate(-270.4 -123.44)"/><path d="M673.13,336.35v-0.62a2.44,2.44,0,0,1-1.87.77,1.92,1.92,0,0,1-2-1.92,1.87,1.87,0,0,1,2-1.88,2.39,2.39,0,0,1,1.87.74v-0.86a1.16,1.16,0,0,0-1.36-1.08,2.37,2.37,0,0,0-1.71.73l-0.52-.87a3.44,3.44,0,0,1,2.43-.94c1.28,0,2.41.54,2.41,2.1v3.84h-1.26Zm0-1.32v-0.87a1.69,1.69,0,0,0-1.38-.6,1.05,1.05,0,1,0,0,2.08A1.7,1.7,0,0,0,673.13,335Z" transform="translate(-270.4 -123.44)"/><path d="M676.28,335v-3.35h-1v-1.1h1V329h1.26v1.58h1.17v1.1h-1.17v3a0.58,0.58,0,0,0,.55.68,0.81,0.81,0,0,0,.56-0.2l0.3,0.95a1.66,1.66,0,0,1-1.19.37A1.34,1.34,0,0,1,676.28,335Z" transform="translate(-270.4 -123.44)"/><path d="M679.7,329.07a0.79,0.79,0,0,1,.78-0.78,0.78,0.78,0,0,1,0,1.56A0.79,0.79,0,0,1,679.7,329.07Zm0.16,7.28v-5.79h1.26v5.79h-1.26Z" transform="translate(-270.4 -123.44)"/><path d="M682.38,333.45a2.91,2.91,0,0,1,3-3,2.6,2.6,0,0,1,2.22,1l-0.83.77a1.55,1.55,0,0,0-1.33-.68,1.93,1.93,0,0,0,0,3.85,1.57,1.57,0,0,0,1.33-.68l0.83,0.77a2.6,2.6,0,0,1-2.22,1A2.91,2.91,0,0,1,682.38,333.45Z" transform="translate(-270.4 -123.44)"/><path d="M697.43,336.35l-0.59-1.54h-3.67l-0.59,1.54H691l3.14-8h1.75l3.14,8h-1.6ZM695,329.77l-1.44,3.81h2.88Z" transform="translate(-270.4 -123.44)"/><path d="M699.36,335.6l0.58-.91a3,3,0,0,0,2,.82,0.92,0.92,0,0,0,1.14-.78c0-1.14-3.5-.32-3.5-2.54,0-.95.82-1.76,2.28-1.76a3.31,3.31,0,0,1,2.25.82l-0.53.89a2.33,2.33,0,0,0-1.71-.7,0.9,0.9,0,0,0-1.08.71c0,1,3.5.26,3.5,2.57,0,1-.85,1.8-2.41,1.8A3.52,3.52,0,0,1,699.36,335.6Z" transform="translate(-270.4 -123.44)"/><path d="M705,335.6l0.58-.91a3,3,0,0,0,2,.82,0.92,0.92,0,0,0,1.14-.78c0-1.14-3.5-.32-3.5-2.54,0-.95.82-1.76,2.28-1.76a3.31,3.31,0,0,1,2.25.82l-0.53.89a2.33,2.33,0,0,0-1.71-.7,0.9,0.9,0,0,0-1.08.71c0,1,3.5.26,3.5,2.57,0,1-.85,1.8-2.41,1.8A3.52,3.52,0,0,1,705,335.6Z" transform="translate(-270.4 -123.44)"/><path d="M710.84,333.45a2.93,2.93,0,0,1,2.94-3,2.87,2.87,0,0,1,2.85,3.15v0.3h-4.47a1.75,1.75,0,0,0,1.85,1.59,2.45,2.45,0,0,0,1.64-.64l0.58,0.83a3.38,3.38,0,0,1-2.35.84A2.91,2.91,0,0,1,710.84,333.45Zm2.94-2a1.6,1.6,0,0,0-1.63,1.54h3.26A1.55,1.55,0,0,0,713.77,331.45Z" transform="translate(-270.4 -123.44)"/><path d="M718.13,335v-3.35h-1v-1.1h1V329h1.26v1.58h1.17v1.1h-1.17v3a0.58,0.58,0,0,0,.55.68,0.81,0.81,0,0,0,.56-0.2l0.3,0.95a1.66,1.66,0,0,1-1.19.37A1.34,1.34,0,0,1,718.13,335Z" transform="translate(-270.4 -123.44)"/><path d="M724.31,335.23l0.78-1.08a3.45,3.45,0,0,0,2.53,1.1c1.15,0,1.61-.56,1.61-1.09,0-1.68-4.67-.64-4.67-3.59,0-1.32,1.16-2.34,2.91-2.34a4.16,4.16,0,0,1,3,1.12l-0.8,1a3.26,3.26,0,0,0-2.32-.91,1.14,1.14,0,0,0-1.35,1c0,1.49,4.65.56,4.65,3.55,0,1.33-.94,2.47-3.09,2.47A4.28,4.28,0,0,1,724.31,335.23Z" transform="translate(-270.4 -123.44)"/><path d="M732,335v-3.35h-1v-1.1h1V329h1.26v1.58h1.17v1.1h-1.17v3a0.58,0.58,0,0,0,.55.68,0.81,0.81,0,0,0,.56-0.2l0.3,0.95a1.66,1.66,0,0,1-1.19.37A1.34,1.34,0,0,1,732,335Z" transform="translate(-270.4 -123.44)"/><path d="M735.21,333.45a3,3,0,1,1,3,3A2.9,2.9,0,0,1,735.21,333.45Zm4.65,0a1.69,1.69,0,1,0-1.68,1.93A1.74,1.74,0,0,0,739.86,333.45Z" transform="translate(-270.4 -123.44)"/><path d="M742.44,336.35v-5.79h1.26v0.85a2.47,2.47,0,0,1,1.88-1v1.25a1.9,1.9,0,0,0-.4,0,2,2,0,0,0-1.49.77v3.95h-1.26Z" transform="translate(-270.4 -123.44)"/><path d="M750.14,336.35v-0.62a2.44,2.44,0,0,1-1.87.77,1.92,1.92,0,0,1-2-1.92,1.87,1.87,0,0,1,2-1.88,2.39,2.39,0,0,1,1.87.74v-0.86a1.16,1.16,0,0,0-1.36-1.08,2.37,2.37,0,0,0-1.71.73l-0.52-.87a3.44,3.44,0,0,1,2.43-.94c1.28,0,2.41.54,2.41,2.1v3.84h-1.26Zm0-1.32v-0.87a1.69,1.69,0,0,0-1.38-.6,1.05,1.05,0,1,0,0,2.08A1.7,1.7,0,0,0,750.14,335Z" transform="translate(-270.4 -123.44)"/><path d="M753,337.84l0.59-.91a2.25,2.25,0,0,0,1.83.74,1.52,1.52,0,0,0,1.71-1.57v-0.7a2.35,2.35,0,0,1-1.86,1c-1.48,0-2.57-1.07-2.57-3s1.08-3,2.57-3a2.31,2.31,0,0,1,1.86.95v-0.8h1.26v5.49c0,2.09-1.55,2.65-3,2.65A3.27,3.27,0,0,1,753,337.84Zm4.14-3.37v-2.16a1.88,1.88,0,0,0-1.49-.78,1.87,1.87,0,0,0,0,3.72A1.88,1.88,0,0,0,757.1,334.47Z" transform="translate(-270.4 -123.44)"/><path d="M759.64,333.45a2.93,2.93,0,0,1,2.94-3,2.87,2.87,0,0,1,2.85,3.15v0.3H761a1.75,1.75,0,0,0,1.85,1.59,2.45,2.45,0,0,0,1.64-.64l0.58,0.83a3.38,3.38,0,0,1-2.35.84A2.91,2.91,0,0,1,759.64,333.45Zm2.94-2a1.6,1.6,0,0,0-1.63,1.54h3.26A1.55,1.55,0,0,0,762.58,331.45Z" transform="translate(-270.4 -123.44)"/><path d="M287.5,335.55v3h-1.26v-8h1.26v0.79a2.31,2.31,0,0,1,1.86-.94c1.5,0,2.57,1.13,2.57,3s-1.07,3-2.57,3A2.27,2.27,0,0,1,287.5,335.55Zm3.12-2.1a1.7,1.7,0,0,0-1.63-1.92,1.88,1.88,0,0,0-1.49.78v2.29a1.91,1.91,0,0,0,1.49.78A1.71,1.71,0,0,0,290.62,333.45Z" transform="translate(-270.4 -123.44)"/><path d="M293.17,336.35v-5.79h1.26v0.85a2.47,2.47,0,0,1,1.88-1v1.25a1.9,1.9,0,0,0-.4,0,2,2,0,0,0-1.49.77v3.95h-1.26Z" transform="translate(-270.4 -123.44)"/><path d="M297.18,329.07a0.79,0.79,0,0,1,.78-0.78,0.78,0.78,0,0,1,0,1.56A0.79,0.79,0,0,1,297.18,329.07Zm0.16,7.28v-5.79h1.26v5.79h-1.26Z" transform="translate(-270.4 -123.44)"/><path d="M299.73,335.6l0.58-.91a3,3,0,0,0,2,.82,0.92,0.92,0,0,0,1.14-.78c0-1.14-3.5-.32-3.5-2.54,0-.95.82-1.76,2.28-1.76a3.31,3.31,0,0,1,2.25.82l-0.53.89a2.33,2.33,0,0,0-1.71-.7,0.9,0.9,0,0,0-1.08.71c0,1,3.5.26,3.5,2.57,0,1-.85,1.8-2.41,1.8A3.52,3.52,0,0,1,299.73,335.6Z" transform="translate(-270.4 -123.44)"/><path d="M313,336.35v-3.78a0.89,0.89,0,0,0-.95-1,1.76,1.76,0,0,0-1.34.77v4.05h-1.26v-3.78a0.9,0.9,0,0,0-1-1,1.75,1.75,0,0,0-1.33.78v4h-1.26v-5.79h1.26v0.79a2.5,2.5,0,0,1,1.88-.94,1.51,1.51,0,0,1,1.58,1.07,2.46,2.46,0,0,1,2-1.07,1.53,1.53,0,0,1,1.67,1.75v4.19H313Z" transform="translate(-270.4 -123.44)"/><path d="M315.73,329.07a0.79,0.79,0,0,1,.78-0.78,0.78,0.78,0,0,1,0,1.56A0.79,0.79,0,0,1,315.73,329.07Zm0.16,7.28v-5.79h1.26v5.79h-1.26Z" transform="translate(-270.4 -123.44)"/><path d="M318.42,333.45a2.91,2.91,0,0,1,3-3,2.6,2.6,0,0,1,2.22,1l-0.83.77a1.55,1.55,0,0,0-1.33-.68,1.93,1.93,0,0,0,0,3.85,1.57,1.57,0,0,0,1.33-.68l0.83,0.77a2.6,2.6,0,0,1-2.22,1A2.91,2.91,0,0,1,318.42,333.45Z" transform="translate(-270.4 -123.44)"/><path d="M324.55,335.65a0.84,0.84,0,1,1,.84.84A0.85,0.85,0,0,1,324.55,335.65Z" transform="translate(-270.4 -123.44)"/><path d="M327.53,329.07a0.79,0.79,0,0,1,.78-0.78,0.78,0.78,0,0,1,0,1.56A0.79,0.79,0,0,1,327.53,329.07Zm0.16,7.28v-5.79h1.26v5.79h-1.26Z" transform="translate(-270.4 -123.44)"/><path d="M330.22,333.45a3,3,0,1,1,3,3A2.9,2.9,0,0,1,330.22,333.45Zm4.65,0a1.69,1.69,0,1,0-1.68,1.93A1.74,1.74,0,0,0,334.87,333.45Z" transform="translate(-270.4 -123.44)"/><path d="M340.21,332.36a4,4,0,0,1,4.2-4.14,3.62,3.62,0,0,1,3.21,1.8l-1.2.61a2.37,2.37,0,0,0-2-1.16,2.89,2.89,0,0,0,0,5.78,2.35,2.35,0,0,0,2-1.16l1.2,0.61a3.63,3.63,0,0,1-3.21,1.8A4,4,0,0,1,340.21,332.36Z" transform="translate(-270.4 -123.44)"/><path d="M355.67,336.35v-5.94l-2.46,5.94h-0.6l-2.45-5.94v5.94h-1.4v-8h2l2.17,5.27,2.18-5.27h2v8h-1.4Z" transform="translate(-270.4 -123.44)"/><path d="M358.26,335.23l0.78-1.08a3.45,3.45,0,0,0,2.53,1.1c1.15,0,1.61-.56,1.61-1.09,0-1.68-4.67-.64-4.67-3.59,0-1.32,1.16-2.34,2.91-2.34a4.16,4.16,0,0,1,3,1.12l-0.8,1a3.26,3.26,0,0,0-2.32-.91,1.14,1.14,0,0,0-1.35,1c0,1.49,4.65.56,4.65,3.55,0,1.33-.94,2.47-3.09,2.47A4.28,4.28,0,0,1,358.26,335.23Z" transform="translate(-270.4 -123.44)"/><path class="cls-2" d="M528.8,277.79H502.54a3.28,3.28,0,0,0-3.28,3.28V311a3.28,3.28,0,0,0,3.28,3.28H528.8a3.28,3.28,0,0,0,3.28-3.28V281.07a3.28,3.28,0,0,0-3.28-3.28M530.26,311a1.46,1.46,0,0,1-1.46,1.46H502.54a1.46,1.46,0,0,1-1.46-1.46V281.07a1.46,1.46,0,0,1,1.46-1.46H528.8a1.46,1.46,0,0,1,1.46,1.46V311Z" transform="translate(-270.4 -123.44)"/><polygon class="cls-2" points="237.07 185.36 241.17 181.71 237.07 178.06 237.07 185.36"/><path class="cls-2" d="M522.29,294a5.86,5.86,0,0,0-4.34-1.63,23.07,23.07,0,0,0-6.84,1.24V283.26h-3.65v15.82l2.58-1.17A22.87,22.87,0,0,1,518,296c1.85,0,2.26,1,2.28,1.87v10.89h3.65V297.85a5.69,5.69,0,0,0-1.59-3.84" transform="translate(-270.4 -123.44)"/><path class="cls-2" d="M517.49,289.19h3.65a10.69,10.69,0,0,0,2.74-5.93h-3.65a14.2,14.2,0,0,1-2.74,5.93" transform="translate(-270.4 -123.44)"/><path d="M324.2,160.78h0a1.38,1.38,0,0,0,1.42-1.41,1.36,1.36,0,0,0-1.42-1.31,1.43,1.43,0,0,0-1.42,1.31A1.45,1.45,0,0,0,324.2,160.78Zm0,8.38H310.44a1.66,1.66,0,0,1-1.82-1.11c-0.1-.3-0.1-0.71-0.2-1l-1.21-12.42-0.3-3a1.57,1.57,0,0,1,1.11-1.72c0.3,0,.61-0.1.91-0.1h30.56a2.44,2.44,0,0,1,1.82.71,3,3,0,0,1,.2,1.61c-0.4,3.43-.71,6.86-1,10.19-0.2,1.82-.4,3.53-0.51,5.35a1.54,1.54,0,0,1-1.52,1.41,1.29,1.29,0,0,1-.61.1H324.2Z" transform="translate(-270.4 -123.44)"/><path d="M327.65,142.21h0a13.89,13.89,0,0,1,.61-1.31c-2.63,2.12-5.06,2-7.59-.1,0.3,0.81.61,1.51,0.91,2.22a22.74,22.74,0,0,0-2.23-.5,0.1,0.1,0,0,0-.1.1c0.2,0.2.3,0.4,0.51,0.61a5.58,5.58,0,0,0,1.52.81,2.68,2.68,0,0,1,1.82,1.62c0.2,0.3.3,0.5,0.51,0.81s0.61,0.91.91,1.41q0.91-1.67,1.82-3a2.68,2.68,0,0,1,.61-0.5,5.34,5.34,0,0,0,2.63-1.51A6,6,0,0,0,330,142c0-.1-0.1-0.1-0.1-0.2A17.25,17.25,0,0,0,327.65,142.21Zm-9.11-8.48h0V134a9.62,9.62,0,0,0,1.92,5c2.12,3,5.67,3,8,.2a13.14,13.14,0,0,0,2-4.95,3,3,0,0,0-.81-2.93,8.73,8.73,0,0,1-.81-1,5.6,5.6,0,0,1-.61-0.81A22.41,22.41,0,0,1,318.54,133.73Zm16,8.68h0l-2.23-.3c3.34,1.31,5.87,3.23,6,7.27H310.85c-0.2-2.52,1.11-5.15,5.16-7H315.1c-0.2,0-.51.1-0.81,0.1,0.3-.3.51-0.4,0.71-0.61a6.84,6.84,0,0,0,1.72-3.53,27.32,27.32,0,0,0,.4-4.14A18.73,18.73,0,0,1,318,128a7,7,0,0,1,5.16-4.44,6.8,6.8,0,0,1,7.49,3.83,13.88,13.88,0,0,1,1.11,5.75,26,26,0,0,0,.3,4.85A7.77,7.77,0,0,0,334.53,142.41Z" transform="translate(-270.4 -123.44)"/><rect class="cls-3" x="34.33" y="154.46" width="36.17" height="36.17" rx="16.83" ry="16.83"/><rect class="cls-3" x="304.73" y="277.9" width="36.17" height="36.17" rx="16.83" ry="16.83" transform="translate(348.4 -150.27) rotate(90)"/><rect class="cls-3" x="304.73" y="277.9" width="36.17" height="36.17" rx="16.83" ry="16.83" transform="translate(375.23 468.52) rotate(-180)"/><rect class="cls-3" x="304.73" y="277.9" width="36.17" height="36.17" rx="16.83" ry="16.83" transform="translate(-243.57 495.36) rotate(-90)"/><path class="cls-4" d="M314.6,309.43a6,6,0,0,1-5.32-5.93V288.42a6,6,0,0,1,6-6h14.4l5.78-2.25,3.25,0.09a7.74,7.74,0,0,0-5.55-2.34H312.45a7.77,7.77,0,0,0-7.77,7.77v20.68a7.76,7.76,0,0,0,.36,2.33Z" transform="translate(-270.4 -123.44)"/><path class="cls-3" d="M315.25,309.47H315l0.24,0h0Z" transform="translate(-270.4 -123.44)"/><path class="cls-5" d="M339.42,282.45l-5.34,1.33a6,6,0,0,1,2.21,4.64V303.5a6,6,0,0,1-6,6h-11L315,312.41h-7.43a7.73,7.73,0,0,0,4.91,1.75h20.68a7.77,7.77,0,0,0,7.77-7.77V285.71a7.74,7.74,0,0,0-.58-3Z" transform="translate(-270.4 -123.44)"/><path class="cls-6" d="M314.6,309.43l0.4,0h0.25l3.38-4.41h-1a3.79,3.79,0,0,1-3.79-3.79V290.74a3.79,3.79,0,0,1,3.79-3.79H324v-2.3l5.66-2.21h-14.4a6,6,0,0,0-6,6V303.5A6,6,0,0,0,314.6,309.43Z" transform="translate(-270.4 -123.44)"/><path class="cls-7" d="M334.09,283.78l-1.1.27L326,287h2.05a3.79,3.79,0,0,1,3.79,3.79v10.52a3.79,3.79,0,0,1-3.79,3.79H324.4l0,1-5,3.4h11a6,6,0,0,0,6-6V288.42A6,6,0,0,0,334.09,283.78Z" transform="translate(-270.4 -123.44)"/><path class="cls-8" d="M333.13,277.94h-4a24.75,24.75,0,0,0-6.63,1.52,22.72,22.72,0,0,0-5.61,3h13.46a6,6,0,0,1,6,6V290a22.48,22.48,0,0,1,3,5.65,23.88,23.88,0,0,1,1.56,8.52V285.71A7.77,7.77,0,0,0,333.13,277.94Z" transform="translate(-270.4 -123.44)"/><path class="cls-9" d="M336.3,288.42a6,6,0,0,0-6-6H316.87a9.7,9.7,0,0,0-1.73,1.59,6,6,0,0,0-1.45,3.88c0,0.57.09,2.83,0.09,2.83a3.79,3.79,0,0,1,3.79-3.79h13.3a5.9,5.9,0,0,1,3.88,1.4A9.6,9.6,0,0,1,336.3,290v-1.6Z" transform="translate(-270.4 -123.44)"/><path class="cls-10" d="M331.89,304v-2.78a3.79,3.79,0,0,1-3.79,3.79H314.75a6,6,0,0,1-3.88-1.42,9.72,9.72,0,0,1-1.59-1.73v1.59a6,6,0,0,0,6,6H328.8a9.57,9.57,0,0,0,1.67-1.54A6,6,0,0,0,331.89,304Z" transform="translate(-270.4 -123.44)"/><path class="cls-11" d="M323.14,312.5a22.59,22.59,0,0,0,5.66-3H315.25a6,6,0,0,1-6-6v-1.59a22.61,22.61,0,0,1-3-5.6,69.55,69.55,0,0,1-1.61-8.43v18.51a7.77,7.77,0,0,0,7.77,7.77h2A73.59,73.59,0,0,0,323.14,312.5Z" transform="translate(-270.4 -123.44)"/><line class="cls-12" x1="52.41" y1="74.06" x2="52.41" y2="130.71"/><polygon class="cls-13" points="44.19 128.31 52.41 142.55 60.64 128.31 44.19 128.31"/><path d="M270.4,232.17a3.33,3.33,0,0,1,3.43-3.45,3,3,0,0,1,2.53,1.32l-0.7.39a2.25,2.25,0,0,0-1.83-1,2.71,2.71,0,0,0,0,5.42,2.22,2.22,0,0,0,1.83-1l0.71,0.39a3,3,0,0,1-2.54,1.32A3.33,3.33,0,0,1,270.4,232.17Z" transform="translate(-270.4 -123.44)"/><path d="M277.16,232.17a3.31,3.31,0,1,1,3.31,3.45A3.25,3.25,0,0,1,277.16,232.17Zm5.76,0a2.46,2.46,0,1,0-2.45,2.71A2.47,2.47,0,0,0,282.91,232.17Z" transform="translate(-270.4 -123.44)"/><path d="M289.79,235.5l-3.89-5.32v5.32h-0.83v-6.67h0.85l3.84,5.21v-5.21h0.83v6.67h-0.8Z" transform="translate(-270.4 -123.44)"/><path d="M293.81,235.5v-5.93H291.7v-0.74h5.06v0.74h-2.12v5.93h-0.83Z" transform="translate(-270.4 -123.44)"/><path d="M297.86,235.5v-6.67h4.37v0.74h-3.54v2.15h3.47v0.74h-3.47v2.3h3.54v0.74h-4.37Z" transform="translate(-270.4 -123.44)"/><path d="M308.26,235.5l-3.89-5.32v5.32h-0.83v-6.67h0.85l3.84,5.21v-5.21h0.83v6.67h-0.8Z" transform="translate(-270.4 -123.44)"/><path d="M312.28,235.5v-5.93h-2.11v-0.74h5.06v0.74h-2.12v5.93h-0.83Z" transform="translate(-270.4 -123.44)"/><line class="cls-12" x1="104.95" y1="172.54" x2="182.57" y2="172.54"/><polygon class="cls-13" points="180.16 180.77 194.41 172.54 180.16 164.32 180.16 180.77"/><path d="M394.78,280.67v-4.08h0.83v4.06a1.89,1.89,0,1,0,3.78,0v-4.06h0.83v4.07A2.72,2.72,0,0,1,394.78,280.67Z" transform="translate(-270.4 -123.44)"/><path d="M401.78,283.26v-6.67h2.68a2,2,0,1,1,0,4h-1.85v2.65h-0.83Zm3.91-4.66a1.24,1.24,0,0,0-1.33-1.27h-1.75v2.54h1.75A1.24,1.24,0,0,0,405.69,278.6Z" transform="translate(-270.4 -123.44)"/><path d="M407.65,283.26v-6.67h2.28a3.33,3.33,0,1,1,0,6.67h-2.28Zm4.84-3.33a2.44,2.44,0,0,0-2.56-2.6h-1.45v5.19h1.45A2.45,2.45,0,0,0,412.49,279.93Z" transform="translate(-270.4 -123.44)"/><path d="M419,283.26l-0.59-1.48h-3.32l-0.59,1.48h-0.95l2.68-6.67h1l2.69,6.67H419Zm-2.25-5.81L415.37,281h2.83Z" transform="translate(-270.4 -123.44)"/><path d="M421.84,283.26v-5.93h-2.11v-0.74h5.06v0.74h-2.12v5.93h-0.83Z" transform="translate(-270.4 -123.44)"/><path d="M425.89,283.26v-6.67h4.37v0.74h-3.54v2.15h3.47v0.74h-3.47v2.3h3.54v0.74h-4.37Z" transform="translate(-270.4 -123.44)"/><path d="M431.18,282.32l0.49-.63a2.82,2.82,0,0,0,2.1.95c1.19,0,1.57-.64,1.57-1.15,0-1.72-3.95-.77-3.95-3.15a2,2,0,0,1,2.29-1.85,3.13,3.13,0,0,1,2.37.93l-0.5.61a2.55,2.55,0,0,0-1.93-.8,1.19,1.19,0,0,0-1.37,1.06c0,1.5,3.95.64,3.95,3.13,0,1-.66,2-2.46,2A3.3,3.3,0,0,1,431.18,282.32Z" transform="translate(-270.4 -123.44)"/><line class="cls-12" x1="244.73" y1="75.96" x2="244.73" y2="128.81"/><polygon class="cls-13" points="236.5 126.41 244.73 140.65 252.96 126.41 236.5 126.41"/><line class="cls-14" x1="441.97" y1="132.56" x2="441.97" y2="87.8"/><polygon class="cls-15" points="450.2 90.21 441.97 75.96 433.74 90.21 450.2 90.21"/><path d="M535.17,214.5v-5.93h-2.11v-0.74h5.06v0.74H536v5.93h-0.83Z" transform="translate(-270.4 -123.44)"/><path d="M539.22,214.5v-6.67h4.37v0.74h-3.54v2.15h3.47v0.74h-3.47v2.3h3.54v0.74h-4.37Z" transform="translate(-270.4 -123.44)"/><path d="M550.61,214.5V209l-2.27,5.49H548L545.74,209v5.49h-0.83v-6.67h1.19l2.07,5,2.08-5h1.19v6.67h-0.83Z" transform="translate(-270.4 -123.44)"/><path d="M553,214.5v-6.67h2.68a2,2,0,1,1,0,4h-1.85v2.65H553Zm3.91-4.66a1.24,1.24,0,0,0-1.33-1.27h-1.75v2.54h1.75A1.24,1.24,0,0,0,556.91,209.84Z" transform="translate(-270.4 -123.44)"/><path d="M558.87,214.5v-6.67h0.83v5.93h3.1v0.74h-3.93Z" transform="translate(-270.4 -123.44)"/><path d="M568.73,214.5L568.14,213h-3.32l-0.59,1.48h-0.95l2.68-6.67h1l2.69,6.67h-0.95Zm-2.25-5.81-1.42,3.59h2.83Z" transform="translate(-270.4 -123.44)"/><path d="M571.53,214.5v-5.93h-2.11v-0.74h5.06v0.74h-2.12v5.93h-0.83Z" transform="translate(-270.4 -123.44)"/><path d="M575.58,214.5v-6.67H580v0.74h-3.54v2.15h3.47v0.74h-3.47v2.3H580v0.74h-4.37Z" transform="translate(-270.4 -123.44)"/><path d="M580.87,213.56l0.49-.63a2.82,2.82,0,0,0,2.1.95c1.19,0,1.57-.64,1.57-1.15,0-1.72-3.95-.77-3.95-3.15a2,2,0,0,1,2.29-1.85,3.14,3.14,0,0,1,2.37.93l-0.5.61a2.55,2.55,0,0,0-1.93-.8,1.19,1.19,0,0,0-1.37,1.06c0,1.5,3.95.64,3.95,3.13,0,1-.66,2-2.46,2A3.3,3.3,0,0,1,580.87,213.56Z" transform="translate(-270.4 -123.44)"/><path d="M535.52,223.39v2.13H535v-2.13H533v-0.52H535V220.8h0.57v2.07h1.92v0.52h-1.92Z" transform="translate(-270.4 -123.44)"/><path d="M540.82,223.17a3.33,3.33,0,0,1,3.43-3.45,3,3,0,0,1,2.53,1.32l-0.7.39a2.25,2.25,0,0,0-1.83-1,2.71,2.71,0,0,0,0,5.42,2.22,2.22,0,0,0,1.83-1l0.71,0.39a3,3,0,0,1-2.54,1.32A3.33,3.33,0,0,1,540.82,223.17Z" transform="translate(-270.4 -123.44)"/><path d="M547.58,223.17a3.31,3.31,0,1,1,3.31,3.45A3.25,3.25,0,0,1,547.58,223.17Zm5.76,0a2.46,2.46,0,1,0-2.45,2.71A2.47,2.47,0,0,0,553.34,223.17Z" transform="translate(-270.4 -123.44)"/><path d="M555.5,226.5v-6.67h2.28a3.33,3.33,0,1,1,0,6.67H555.5Zm4.84-3.33a2.44,2.44,0,0,0-2.56-2.6h-1.45v5.19h1.45A2.45,2.45,0,0,0,560.34,223.17Z" transform="translate(-270.4 -123.44)"/><path d="M562.5,226.5v-6.67h4.37v0.74h-3.54v2.15h3.47v0.74h-3.47v2.3h3.54v0.74H562.5Z" transform="translate(-270.4 -123.44)"/><path d="M534.59,240.49a7.63,7.63,0,0,1,0-8.83L535,232a8.5,8.5,0,0,0,0,8.15Z" transform="translate(-270.4 -123.44)"/><path d="M535.69,236.08a2.39,2.39,0,1,1,2.39,2.54A2.37,2.37,0,0,1,535.69,236.08Zm4,0a1.62,1.62,0,1,0-1.6,1.87A1.68,1.68,0,0,0,539.68,236.08Z" transform="translate(-270.4 -123.44)"/><path d="M542.44,237.77v2.57h-0.75v-6.67h0.75v0.72a2,2,0,0,1,1.63-.84c1.27,0,2.15,1,2.15,2.53s-0.88,2.54-2.15,2.54A2,2,0,0,1,542.44,237.77Zm3-1.69a1.63,1.63,0,0,0-1.55-1.86,1.79,1.79,0,0,0-1.44.77v2.18a1.79,1.79,0,0,0,1.44.78A1.64,1.64,0,0,0,545.43,236.08Z" transform="translate(-270.4 -123.44)"/><path d="M547.56,237.49v-3.16h-0.8v-0.66h0.8v-1.32h0.75v1.32h1v0.66h-1v3a0.52,0.52,0,0,0,.49.62,0.72,0.72,0,0,0,.51-0.2l0.22,0.56a1.22,1.22,0,0,1-.9.31A1,1,0,0,1,547.56,237.49Z" transform="translate(-270.4 -123.44)"/><path d="M550.22,232.48a0.5,0.5,0,1,1,1,0A0.5,0.5,0,0,1,550.22,232.48Zm0.13,6v-4.83h0.75v4.83h-0.75Z" transform="translate(-270.4 -123.44)"/><path d="M552.32,236.08a2.39,2.39,0,1,1,2.39,2.54A2.37,2.37,0,0,1,552.32,236.08Zm4,0a1.62,1.62,0,1,0-1.6,1.87A1.68,1.68,0,0,0,556.31,236.08Z" transform="translate(-270.4 -123.44)"/><path d="M561.58,238.5v-3.16a1,1,0,0,0-1.08-1.12,1.86,1.86,0,0,0-1.43.75v3.53h-0.75v-4.83h0.75v0.7a2.4,2.4,0,0,1,1.72-.82,1.37,1.37,0,0,1,1.54,1.56v3.39h-0.75Z" transform="translate(-270.4 -123.44)"/><path d="M566.85,238.5V238a2.09,2.09,0,0,1-1.6.67,1.61,1.61,0,0,1-1.69-1.6,1.58,1.58,0,0,1,1.69-1.59,2,2,0,0,1,1.6.66v-0.87a1.06,1.06,0,0,0-1.22-1,1.92,1.92,0,0,0-1.48.67l-0.35-.52a2.53,2.53,0,0,1,1.93-.8,1.61,1.61,0,0,1,1.87,1.63v3.32h-0.75Zm0-1v-0.91a1.61,1.61,0,0,0-1.33-.6,1.06,1.06,0,1,0,0,2.11A1.61,1.61,0,0,0,566.85,237.48Z" transform="translate(-270.4 -123.44)"/><path d="M569.1,238.5v-6.67h0.75v6.67H569.1Z" transform="translate(-270.4 -123.44)"/><path d="M571.2,234.15a0.55,0.55,0,1,1,.55.55A0.55,0.55,0,0,1,571.2,234.15Zm0,3.9a0.55,0.55,0,1,1,.55.55A0.55,0.55,0,0,1,571.2,238.05Z" transform="translate(-270.4 -123.44)"/><path d="M576,235.17a3.33,3.33,0,0,1,3.43-3.45A3,3,0,0,1,582,233l-0.7.39a2.25,2.25,0,0,0-1.83-1,2.71,2.71,0,0,0,0,5.42,2.22,2.22,0,0,0,1.83-1L582,237.3a3,3,0,0,1-2.54,1.32A3.33,3.33,0,0,1,576,235.17Z" transform="translate(-270.4 -123.44)"/><path d="M583,238.5v-6.67h0.83v6.67H583Z" transform="translate(-270.4 -123.44)"/><path d="M584.8,240.14a8.43,8.43,0,0,0,0-8.15l0.45-.34a7.59,7.59,0,0,1,0,8.83Z" transform="translate(-270.4 -123.44)"/><line class="cls-14" x1="202.09" y1="134.29" x2="125.09" y2="69.59"/><polygon class="cls-15" points="132.22 64.83 116.02 61.97 121.64 77.43 132.22 64.83"/><path d="M432.78,214.5v-6.67h2.68a2,2,0,1,1,0,4h-1.85v2.65h-0.83Zm3.91-4.66a1.24,1.24,0,0,0-1.33-1.27h-1.75v2.54h1.75A1.24,1.24,0,0,0,436.69,209.84Z" transform="translate(-270.4 -123.44)"/><path d="M442.51,214.5l-1.7-2.65h-1.33v2.65h-0.83v-6.67h2.68a1.94,1.94,0,0,1,2.09,2,1.84,1.84,0,0,1-1.73,1.94l1.8,2.72h-1Zm0-4.66a1.24,1.24,0,0,0-1.33-1.27h-1.75v2.55h1.75A1.25,1.25,0,0,0,442.56,209.84Z" transform="translate(-270.4 -123.44)"/><path d="M444.73,214.5v-6.67h4.37v0.74h-3.54v2.15H449v0.74h-3.47v2.3h3.54v0.74h-4.37Z" transform="translate(-270.4 -123.44)"/><path d="M452.41,214.5l-2.68-6.67h0.95l2.25,5.76,2.25-5.76h0.95l-2.69,6.67h-1Z" transform="translate(-270.4 -123.44)"/><path d="M457,214.5v-6.67h0.83v6.67H457Z" transform="translate(-270.4 -123.44)"/><path d="M459.39,214.5v-6.67h4.37v0.74h-3.54v2.15h3.47v0.74h-3.47v2.3h3.54v0.74h-4.37Z" transform="translate(-270.4 -123.44)"/><path d="M470.18,214.5l-1.47-5.38-1.47,5.38h-0.9l-1.9-6.67h0.92l1.48,5.56,1.53-5.56h0.69l1.53,5.56,1.47-5.56H473l-1.9,6.67h-0.9Z" transform="translate(-270.4 -123.44)"/><path d="M473.51,213.56l0.49-.63a2.82,2.82,0,0,0,2.1.95c1.19,0,1.57-.64,1.57-1.15,0-1.72-3.95-.77-3.95-3.15a2,2,0,0,1,2.29-1.85,3.13,3.13,0,0,1,2.37.93l-0.5.61a2.55,2.55,0,0,0-1.93-.8,1.19,1.19,0,0,0-1.37,1.06c0,1.5,3.95.64,3.95,3.13,0,1-.66,2-2.46,2A3.3,3.3,0,0,1,473.51,213.56Z" transform="translate(-270.4 -123.44)"/><line class="cls-12" x1="298.45" y1="172.54" x2="376.07" y2="172.54"/><polygon class="cls-13" points="373.66 180.77 387.91 172.54 373.66 164.32 373.66 180.77"/><path d="M581.12,274.4v-6.67h2.68a2,2,0,1,1,0,4h-1.85v2.65h-0.83Zm3.91-4.66a1.24,1.24,0,0,0-1.33-1.27h-1.75V271h1.75A1.24,1.24,0,0,0,585,269.74Z" transform="translate(-270.4 -123.44)"/><path d="M587,271.81v-4.08h0.83v4.06a1.89,1.89,0,1,0,3.78,0v-4.06h0.83v4.07A2.72,2.72,0,0,1,587,271.81Z" transform="translate(-270.4 -123.44)"/><path d="M594,274.4v-6.67h3a1.68,1.68,0,0,1,1.87,1.7,1.51,1.51,0,0,1-1.17,1.53,1.66,1.66,0,0,1,1.3,1.64,1.74,1.74,0,0,1-1.93,1.8h-3Zm4-4.85a1,1,0,0,0-1.15-1.08h-2v2.15h2A1,1,0,0,0,598,269.55Zm0.13,3a1.13,1.13,0,0,0-1.24-1.15h-2v2.3h2A1.1,1.1,0,0,0,598.1,272.51Z" transform="translate(-270.4 -123.44)"/><path d="M600.28,274.4v-6.67h0.83v5.93h3.1v0.74h-3.93Z" transform="translate(-270.4 -123.44)"/><path d="M605.38,274.4v-6.67h0.83v6.67h-0.83Z" transform="translate(-270.4 -123.44)"/><path d="M607.37,273.46l0.49-.63a2.82,2.82,0,0,0,2.1.95c1.19,0,1.57-.64,1.57-1.15,0-1.72-3.95-.77-3.95-3.15a2,2,0,0,1,2.29-1.85,3.13,3.13,0,0,1,2.37.93l-0.5.61a2.55,2.55,0,0,0-1.93-.8,1.19,1.19,0,0,0-1.37,1.06c0,1.5,3.95.64,3.95,3.13,0,1-.66,2-2.46,2A3.3,3.3,0,0,1,607.37,273.46Z" transform="translate(-270.4 -123.44)"/><path d="M618.36,274.4v-3.06h-3.9v3.06h-0.83v-6.67h0.83v2.87h3.9v-2.87h0.83v6.67h-0.83Z" transform="translate(-270.4 -123.44)"/><path d="M620.75,274.4v-6.67h4.37v0.74h-3.54v2.15H625v0.74h-3.47v2.3h3.54v0.74h-4.37Z" transform="translate(-270.4 -123.44)"/><path d="M626.44,274.4v-6.67h2.28a3.33,3.33,0,1,1,0,6.67h-2.28Zm4.84-3.33a2.44,2.44,0,0,0-2.56-2.6h-1.45v5.19h1.45A2.45,2.45,0,0,0,631.28,271.07Z" transform="translate(-270.4 -123.44)"/><path d="M590.46,286.4v-6.67h3a1.68,1.68,0,0,1,1.87,1.7,1.51,1.51,0,0,1-1.17,1.53,1.67,1.67,0,0,1,1.3,1.64,1.74,1.74,0,0,1-1.93,1.8h-3Zm4-4.85a1,1,0,0,0-1.15-1.08h-2v2.15h2A1,1,0,0,0,594.44,281.55Zm0.13,3a1.13,1.13,0,0,0-1.24-1.15h-2v2.3h2A1.1,1.1,0,0,0,594.57,284.51Z" transform="translate(-270.4 -123.44)"/><path d="M596.75,283.81v-4.08h0.83v4.06a1.89,1.89,0,1,0,3.78,0v-4.06h0.83v4.07A2.72,2.72,0,0,1,596.75,283.81Z" transform="translate(-270.4 -123.44)"/><path d="M603.75,286.4v-6.67h0.83v6.67h-0.83Z" transform="translate(-270.4 -123.44)"/><path d="M606.14,286.4v-6.67H607v5.93h3.1v0.74h-3.93Z" transform="translate(-270.4 -123.44)"/><path d="M611.24,286.4v-6.67h2.28a3.33,3.33,0,1,1,0,6.67h-2.28Zm4.84-3.33a2.44,2.44,0,0,0-2.56-2.6h-1.45v5.19h1.45A2.45,2.45,0,0,0,616.08,283.07Z" transform="translate(-270.4 -123.44)"/><path d="M617.84,285.46l0.49-.63a2.81,2.81,0,0,0,2.1.95c1.19,0,1.57-.64,1.57-1.15,0-1.72-3.95-.77-3.95-3.15a2,2,0,0,1,2.29-1.85,3.14,3.14,0,0,1,2.37.93l-0.5.61a2.55,2.55,0,0,0-1.93-.8,1.19,1.19,0,0,0-1.37,1.06c0,1.5,3.95.64,3.95,3.13,0,1-.66,2-2.46,2A3.3,3.3,0,0,1,617.84,285.46Z" transform="translate(-270.4 -123.44)"/><polygon class="cls-16" points="418.01 170.12 413.31 168.59 413.31 162.06 418.01 163.59 418.01 170.12"/><polygon class="cls-16" points="419.19 170.12 423.9 168.59 423.9 162.06 419.19 163.59 419.19 170.12"/><polygon class="cls-16" points="418.63 162.61 414.4 161.19 418.63 159.76 422.85 161.19 418.63 162.61"/><polygon class="cls-16" points="429.52 170.12 424.82 168.59 424.82 162.06 429.52 163.59 429.52 170.12"/><polygon class="cls-16" points="430.7 170.12 435.4 168.59 435.4 162.06 430.7 163.59 430.7 170.12"/><polygon class="cls-16" points="430.13 162.61 425.91 161.19 430.13 159.76 434.36 161.19 430.13 162.61"/><polygon class="cls-16" points="423.77 179.76 419.06 178.23 419.06 171.71 423.77 173.24 423.77 179.76"/><polygon class="cls-16" points="424.94 179.76 429.65 178.23 429.65 171.71 424.94 173.24 424.94 179.76"/><polygon class="cls-16" points="424.38 172.25 420.15 170.83 424.38 169.41 428.6 170.83 424.38 172.25"/><polygon class="cls-16" points="435.17 160.47 430.46 158.94 430.46 152.42 435.17 153.95 435.17 160.47"/><polygon class="cls-16" points="436.34 160.47 441.05 158.94 441.05 152.42 436.34 153.95 436.34 160.47"/><polygon class="cls-16" points="435.78 152.96 431.55 151.54 435.78 150.12 440 151.54 435.78 152.96"/><polygon class="cls-16" points="446.67 160.47 441.97 158.94 441.97 152.42 446.67 153.95 446.67 160.47"/><polygon class="cls-16" points="447.85 160.47 452.56 158.94 452.56 152.42 447.85 153.95 447.85 160.47"/><polygon class="cls-16" points="447.28 152.96 443.06 151.54 447.28 150.12 451.51 151.54 447.28 152.96"/><path d="M709.84,303.44A8.14,8.14,0,0,0,714,304.6c2.35,0,3.72-1.24,3.72-3s-1-2.61-3.35-3.54c-2.9-1-4.7-2.54-4.7-5,0-2.77,2.3-4.83,5.76-4.83a8.09,8.09,0,0,1,3.93.87l-0.63,1.87a7.09,7.09,0,0,0-3.38-.85c-2.43,0-3.35,1.45-3.35,2.67,0,1.66,1.08,2.48,3.54,3.43,3,1.16,4.54,2.61,4.54,5.23s-2,5.12-6.23,5.12a9.2,9.2,0,0,1-4.54-1.14Z" transform="translate(-270.4 -123.44)"/><path d="M722.91,303.57a7.77,7.77,0,0,0,3.8,1.08c3,0,3.91-1.9,3.88-3.33,0-2.4-2.19-3.43-4.44-3.43h-1.29v-1.74h1.29c1.69,0,3.83-.87,3.83-2.9,0-1.37-.87-2.59-3-2.59a6.3,6.3,0,0,0-3.43,1.14l-0.61-1.69a8.16,8.16,0,0,1,4.49-1.32c3.38,0,4.91,2,4.91,4.09a4.26,4.26,0,0,1-3.17,4V297a4.47,4.47,0,0,1,3.83,4.41c0,2.75-2.14,5.15-6.26,5.15a8.73,8.73,0,0,1-4.46-1.16Z" transform="translate(-270.4 -123.44)"/><path class="cls-17" d="M697.37,157.68a30.56,30.56,0,0,1,7.56-3.28L706,154l0.07,0a10,10,0,0,0,1.47-.6,1.75,1.75,0,0,0,.08-0.24,22.65,22.65,0,0,1-3.53-11.86c0-3.44,1.08-6,3.12-7.55a6.86,6.86,0,0,0-3.09-.62c-3.05,0-5.52,1.22-5.52,5.6a15.19,15.19,0,0,0,2.71,8.54c0,0.16,0,.33-0.06.49a1.73,1.73,0,0,1-.67,1.19,8.18,8.18,0,0,1-1.49.63,25.66,25.66,0,0,0-6.17,2.58,5.46,5.46,0,0,0-2,2.85,12.34,12.34,0,0,0-.51,3.62h5.76A4.67,4.67,0,0,1,697.37,157.68Z" transform="translate(-270.4 -123.44)"/><path class="cls-17" d="M736,155a5.36,5.36,0,0,0-2-2.81,25.72,25.72,0,0,0-6.18-2.6,8.19,8.19,0,0,1-1.49-.64,1.73,1.73,0,0,1-.67-1.2,5.79,5.79,0,0,1-.08-0.71,15.4,15.4,0,0,0,2.55-8.32c0-4.38-2.47-5.6-5.52-5.6a6.81,6.81,0,0,0-3.13.64c2,1.55,3.09,4.1,3.09,7.53a22.67,22.67,0,0,1-3.34,11.58l0,0.1a2.46,2.46,0,0,0,.12.43,10.26,10.26,0,0,0,1.56.65l0.88,0.29a31.63,31.63,0,0,1,7.76,3.37,4,4,0,0,1,1.11.9h5.81A12.34,12.34,0,0,0,736,155Z" transform="translate(-270.4 -123.44)"/><path d="M731.2,163.06a7.2,7.2,0,0,0-2.67-3.76,34.34,34.34,0,0,0-8.23-3.48,10.94,10.94,0,0,1-2-.86,2.32,2.32,0,0,1-.89-1.6,7.82,7.82,0,0,1-.11-1,20.54,20.54,0,0,0,3.4-11.1c0-5.84-3.3-7.46-7.37-7.46s-7.37,1.62-7.37,7.46a20.25,20.25,0,0,0,3.62,11.39c0,0.22,0,.44-0.08.65a2.3,2.3,0,0,1-.89,1.59,10.91,10.91,0,0,1-2,.84c-2.82.95-5.73,1.78-8.23,3.44a7.37,7.37,0,0,0-2.67,3.84,15.59,15.59,0,0,0-.67,4.86h36.82A15.58,15.58,0,0,0,731.2,163.06Z" transform="translate(-270.4 -123.44)"/></svg>